# xmcd
#
# Track frame offsets:
#	150
#	2005
#	19005
#	21260
#	43087
#	44685
#	64622
#	66930
#	86347
#	87327
#	106247
#	108110
#	130280
#	132205
#	153637
#	157172
#	174190
#	175575
#	195605
#	197852
#	217197
#	219480
#	239935
#	241927
#	265225
#
# Disc length: 3670 seconds
#
# Revision: 3
# Processed by: cddbd v1.5.2PL0 Copyright (c) Steve Scherf et al.
# Submitted via: EasyCDDAExtractor 15.3.0.1
#
DISCID=650e5419
DTITLE=Ricardo Montaner - Una Mañana Y Un Camino
DYEAR=1994
DGENRE=Latin
TTITLE0=Preludio Soledad
TTITLE1=Quisiera
TTITLE2=Preludio Gregoriano
TTITLE3=Una Mañana Y Un Camino
TTITLE4=Preludio Jamon Y Queso
TTITLE5=Cuando Ellas Dicen
TTITLE6=Preludio Contestadora
TTITLE7=El Mundo Gira Aunque No Estes
TTITLE8=Preludio Suspiro
TTITLE9=Para Siempre
TTITLE10=Preludio Todos Los Barcos Y Ningun Pajaro
TTITLE11=En La Faz De La Tierra
TTITLE12=Preludio Napoles
TTITLE13=No Te Pareces A Mi
TTITLE14=Preludio Alma Andina, Antiplano
TTITLE15=La Diosa Del Lugar
TTITLE16=Preludio La Radio
TTITLE17=Amor De Roca
TTITLE18=Preludio Wind
TTITLE19=Yo Soy El Recuerdo
TTITLE20=Preludio Sinfonia
TTITLE21=Un Amor Mas Grande Que El Amor
TTITLE22=Preludio Digital
TTITLE23=Cachita
TTITLE24=Epilogo Cachita ¡Eh!
EXTD=
EXTT0=
EXTT1=
EXTT2=
EXTT3=
EXTT4=
EXTT5=
EXTT6=
EXTT7=
EXTT8=
EXTT9=
EXTT10=
EXTT11=
EXTT12=
EXTT13=
EXTT14=
EXTT15=
EXTT16=
EXTT17=
EXTT18=
EXTT19=
EXTT20=
EXTT21=
EXTT22=
EXTT23=
EXTT24=
PLAYORDER=
